<svg width="58" height="58" viewBox="0 0 58 58" fill="none" xmlns="http://www.w3.org/2000/svg">
<path d="M0 27.55H12.7222C15.625 27.55 18.6326 27.373 21.1036 25.8504C23.035 24.6606 24.6606 23.0347 25.8508 21.1032C27.373 18.6326 27.55 15.625 27.55 12.7222V0H8.7C6.3926 0 4.18008 0.916516 2.54812 2.54812C0.91687 4.17972 0 6.3926 0 8.7V27.55Z" fill="white"/>
<path d="M58 29C58 45.0166 45.0166 58 29 58C13.4706 58 0.792969 45.7925 0.0346924 30.45H12.7222C15.625 30.45 18.6326 30.627 21.1029 32.1496C22.8736 33.2396 24.3895 34.6977 25.547 36.4249C26.7046 38.1521 27.4771 40.1079 27.8127 42.1601L27.9026 42.7155C27.9805 42.9446 28.1284 43.1432 28.3253 43.2841C28.4449 43.3694 28.5787 43.4306 28.7189 43.4657C28.8103 43.4887 28.9044 43.5004 29 43.5004C29.2421 43.5004 29.4779 43.4246 29.6747 43.2841C29.8716 43.1432 30.0195 42.9446 30.0974 42.7155L30.1873 42.1601C30.6773 39.1617 32.0961 36.393 34.2449 34.2449C36.393 32.0965 39.162 30.6773 42.1597 30.1877L42.7155 30.0978C42.9442 30.0195 43.1432 29.8716 43.2841 29.6747C43.425 29.4779 43.5 29.2418 43.5 29C43.5 28.7582 43.425 28.5221 43.2841 28.3253C43.2019 28.2102 43.1 28.1118 42.9832 28.0343C42.9003 27.9794 42.8104 27.9348 42.7155 27.9022L42.1597 27.8123C40.1079 27.4774 38.1517 26.705 36.4249 25.5474C34.6973 24.3898 33.2396 22.874 32.1492 21.1032C30.627 18.6326 30.45 15.625 30.45 12.7222V0H49.3C51.6074 0 53.8199 0.916516 55.4519 2.54812C57.0831 4.17972 58 6.3926 58 8.7V29Z" fill="white"/>
</svg>
