<svg width="48" height="48" viewBox="0 0 48 48" fill="none" xmlns="http://www.w3.org/2000/svg">
<rect width="48" height="48" fill="white" fill-opacity="0.08"/>
<path d="M35.9136 16.4008C35.1211 16.7422 34.2879 16.9799 33.4346 17.1081C33.8335 17.0396 34.4205 16.3209 34.6542 16.03C35.0091 15.5912 35.2797 15.0903 35.452 14.5527C35.452 14.5128 35.4919 14.4557 35.452 14.4272C35.4319 14.4162 35.4094 14.4105 35.3865 14.4105C35.3636 14.4105 35.341 14.4162 35.3209 14.4272C34.3944 14.9294 33.4083 15.3127 32.386 15.568C32.3504 15.5789 32.3124 15.5799 32.2763 15.5708C32.2401 15.5618 32.2071 15.5431 32.1808 15.5167C32.1013 15.4218 32.0156 15.3323 31.9244 15.2486C31.5074 14.8746 31.0343 14.5686 30.5224 14.3416C29.8315 14.0579 29.0851 13.935 28.3397 13.9823C27.6165 14.028 26.9104 14.2222 26.2653 14.5527C25.6301 14.9012 25.0718 15.3746 24.624 15.9445C24.153 16.531 23.8129 17.2118 23.6267 17.9409C23.4732 18.6344 23.4557 19.3512 23.5754 20.0513C23.5754 20.1711 23.5754 20.1882 23.4728 20.1711C19.4095 19.5722 16.0756 18.1291 13.3515 15.0318C13.2318 14.8949 13.1692 14.8949 13.0723 15.0318C11.8869 16.8343 12.4625 19.6863 13.9442 21.0952C14.1437 21.2834 14.3488 21.4659 14.5654 21.6371C13.886 21.5888 13.2233 21.4045 12.6164 21.0952C12.5024 21.021 12.4397 21.061 12.434 21.1979C12.4178 21.3876 12.4178 21.5785 12.434 21.7683C12.5529 22.6778 12.911 23.5394 13.4718 24.265C14.0325 24.9906 14.7757 25.5541 15.6254 25.898C15.8325 25.9868 16.0484 26.0537 16.2694 26.0976C15.6405 26.2215 14.9954 26.2408 14.3602 26.1546C14.2235 26.1261 14.1722 26.2003 14.2235 26.3315C15.0612 28.6131 16.8792 29.3089 18.2127 29.6968C18.3951 29.7253 18.5775 29.7253 18.7826 29.771C18.7826 29.771 18.7826 29.771 18.7484 29.8052C18.3552 30.5239 16.7652 31.0087 16.0357 31.2597C14.7043 31.7384 13.2847 31.9214 11.8755 31.7959C11.6532 31.7617 11.602 31.7674 11.545 31.7959C11.488 31.8244 11.545 31.8872 11.6076 31.9442C11.8926 32.1324 12.1775 32.2979 12.4739 32.4576C13.3561 32.9392 14.2888 33.3218 15.255 33.5984C20.2586 34.9787 25.8892 33.9634 29.6448 30.2273C32.5969 27.2954 33.6341 23.2513 33.6341 19.2014C33.6341 19.0474 33.8221 18.9562 33.9304 18.8763C34.6773 18.2939 35.3357 17.606 35.8851 16.8343C35.9803 16.7192 36.0291 16.5728 36.0219 16.4236C36.0219 16.338 36.0219 16.3551 35.9136 16.4008Z" fill="white"/>
</svg>
